<svg width="1200" height="760" viewBox="0 0 1200 760" fill="none" xmlns="http://www.w3.org/2000/svg" role="img" aria-labelledby="pulihTitle pulihDesc">
  <title id="pulihTitle">PulihBersama project cover</title>
  <desc id="pulihDesc">A calm social impact product concept with guidance cards, structured support, and accessible digital pathways.</desc>
  <rect width="1200" height="760" fill="#f7f7f8"/>
  <path d="M0 0H1200V760H0V0Z" fill="url(#bg)"/>
  <circle cx="1002" cy="610" r="190" fill="#dbeafe" opacity="0.55"/>
  <circle cx="208" cy="154" r="184" fill="#ede9fe" opacity="0.48"/>
  <rect x="158" y="108" width="884" height="544" rx="30" fill="white" stroke="#e5e7eb"/>
  <rect x="204" y="154" width="792" height="86" rx="22" fill="#f8fafc"/>
  <circle cx="251" cy="197" r="22" fill="#2563eb"/>
  <text x="292" y="204" fill="#1d1d1f" font-family="Inter, Arial, sans-serif" font-size="24" font-weight="700">Guided Support</text>
  <rect x="788" y="178" width="142" height="34" rx="17" fill="#1d1d1f"/>
  <text x="828" y="200" fill="white" font-family="Inter, Arial, sans-serif" font-size="14" font-weight="700">Start</text>
  <rect x="224" y="292" width="228" height="254" rx="22" fill="#fbfdff" stroke="#e5e7eb"/>
  <text x="256" y="341" fill="#1d1d1f" font-family="Inter, Arial, sans-serif" font-size="22" font-weight="700">Step 1</text>
  <rect x="256" y="374" width="140" height="12" rx="6" fill="#94a3b8"/>
  <rect x="256" y="404" width="164" height="12" rx="6" fill="#cbd5e1"/>
  <rect x="256" y="448" width="106" height="34" rx="17" fill="#dbeafe"/>
  <rect x="486" y="292" width="228" height="254" rx="22" fill="#f8fafc" stroke="#e5e7eb"/>
  <text x="518" y="341" fill="#1d1d1f" font-family="Inter, Arial, sans-serif" font-size="22" font-weight="700">Support</text>
  <circle cx="552" cy="415" r="32" fill="#ede9fe"/>
  <circle cx="600" cy="415" r="32" fill="#dbeafe"/>
  <circle cx="648" cy="415" r="32" fill="#dcfce7"/>
  <rect x="518" y="478" width="152" height="12" rx="6" fill="#94a3b8"/>
  <rect x="748" y="292" width="228" height="254" rx="22" fill="#fbfdff" stroke="#e5e7eb"/>
  <text x="780" y="341" fill="#1d1d1f" font-family="Inter, Arial, sans-serif" font-size="22" font-weight="700">Progress</text>
  <path d="M795 456C818 427 838 439 862 405C887 371 914 388 936 352" stroke="#2563eb" stroke-width="9" stroke-linecap="round"/>
  <circle cx="795" cy="456" r="8" fill="#2563eb"/>
  <circle cx="862" cy="405" r="8" fill="#2563eb"/>
  <circle cx="936" cy="352" r="8" fill="#2563eb"/>
  <rect x="224" y="574" width="752" height="36" rx="18" fill="#f8fafc" stroke="#e5e7eb"/>
  <rect x="256" y="586" width="168" height="12" rx="6" fill="#2563eb" opacity="0.2"/>
  <rect x="460" y="586" width="182" height="12" rx="6" fill="#8b5cf6" opacity="0.18"/>
  <rect x="678" y="586" width="190" height="12" rx="6" fill="#12815f" opacity="0.2"/>
  <defs>
    <linearGradient id="bg" x1="130" y1="44" x2="1060" y2="732" gradientUnits="userSpaceOnUse">
      <stop stop-color="#ffffff"/>
      <stop offset="0.54" stop-color="#f5f7fb"/>
      <stop offset="1" stop-color="#eef5ff"/>
    </linearGradient>
  </defs>
</svg>
